<?xml version="1.0" encoding="UTF-8"?>
<svg id="Layer_1" data-name="Layer 1" xmlns="http://www.w3.org/2000/svg" viewBox="0 0 1169 176.95">
  <defs>
    <style>
      .cls-1 {
        fill: #fff;
      }

      .cls-2 {
        fill: #00c95a;
      }
    </style>
  </defs>
  <path class="cls-1" d="M42,42c5.5-5.5,12.1-9.7,19.8-12.6,7.6-2.9,16.2-4.4,25.7-4.4h77.5V0H87.5c-13,0-24.9,2.1-35.6,6.4-10.7,4.3-20,10.2-27.6,17.9S10.6,41.1,6.4,51.9,0,74.5,0,87.5s2.1,24.9,6.4,35.6c4.3,10.7,10.2,20,17.9,27.6,7.7,7.7,16.9,13.6,27.6,17.9s22.6,6.4,35.6,6.4h25.2v-25h-25.2c-9.5,0-18.1-1.5-25.8-4.4s-14.2-7.1-19.8-12.6-9.7-12.1-12.6-19.8-4.3-16.2-4.3-25.7,1.5-18.1,4.4-25.8c2.9-7.6,7.1-14.2,12.6-19.7h0Zm123,33H58l43.9,57.8,6.2,8.2,6.2,8.2,.1,.2,19.6,25.6h31l-25.9-34-10.2-13.4-21.1-27.6h57.2v-25h0Z"/>
  <polygon class="cls-2" points="165 100 107.8 100 128.8 127.6 139.1 141 108.2 141 101.9 132.8 58 75 165 75 165 100"/>
  <polygon class="cls-2" points="165 175 134 175 114.6 149.4 114.6 127.6 128.8 127.6 139.1 141 165 175"/>
  <polygon class="cls-2" points="118.9 132.8 118.9 149.2 114.4 149.2 108.2 141 101.9 132.8 118.9 132.8"/>
  <g>
    <path class="cls-1" d="M232.29,175c-1.04-2.28-1.79-6.12-2.25-11.52-6.12,8.98-13.93,13.48-23.44,13.48s-17.04-2.69-22.41-8.06-8.06-12.94-8.06-22.71c0-10.74,3.65-19.27,10.94-25.59,7.29-6.31,17.29-9.54,29.98-9.67h12.7v-11.23c0-6.31-1.4-10.81-4.2-13.48-2.8-2.67-7.06-4-12.79-4-5.21,0-9.44,1.55-12.7,4.64-3.26,3.09-4.88,7.02-4.88,11.77h-17.29c0-5.4,1.59-10.56,4.79-15.48,3.19-4.92,7.49-8.77,12.89-11.57,5.4-2.8,11.43-4.2,18.07-4.2,10.81,0,19.03,2.69,24.66,8.06,5.63,5.37,8.51,13.2,8.64,23.49v53.32c.06,8.14,1.17,15.2,3.32,21.19v1.56h-17.97Zm-23.05-13.77c4.23,0,8.27-1.17,12.11-3.52,3.84-2.34,6.64-5.27,8.4-8.79v-25.2h-9.77c-8.2,.13-14.68,1.97-19.43,5.52-4.75,3.55-7.13,8.51-7.13,14.89,0,5.99,1.2,10.34,3.61,13.04,2.41,2.7,6.48,4.05,12.21,4.05Z"/>
    <path class="cls-1" d="M317.34,85.55c-2.41-.45-5.01-.68-7.81-.68-8.85,0-15.04,4.85-18.55,14.55v75.59h-17.29V69.34h16.8l.29,10.74c4.62-8.46,11.17-12.7,19.63-12.7,2.73,0,5.01,.46,6.84,1.37l.1,16.8Z"/>
    <path class="cls-1" d="M350.84,69.34l.49,11.43c6.71-8.92,15.27-13.38,25.68-13.38,18.68,0,28.16,12.47,28.42,37.4v70.21h-17.19V105.57c0-8.27-1.38-14.14-4.15-17.63-2.77-3.48-6.92-5.22-12.45-5.22-4.3,0-8.15,1.43-11.57,4.3-3.42,2.87-6.17,6.61-8.25,11.23v76.76h-17.29V69.34h16.31Z"/>
    <path class="cls-1" d="M469.1,176.95c-13.15,0-23.24-3.92-30.27-11.77-7.03-7.84-10.61-19.35-10.74-34.52v-12.79c0-15.75,3.43-28.11,10.3-37.06,6.87-8.95,16.46-13.43,28.76-13.43s21.61,3.94,27.73,11.82c6.12,7.88,9.24,20.15,9.38,36.82v11.33h-58.98v2.44c0,11.33,2.13,19.56,6.4,24.71,4.26,5.14,10.4,7.71,18.41,7.71,5.08,0,9.55-.96,13.43-2.88,3.87-1.92,7.5-4.96,10.89-9.13l8.98,10.94c-7.49,10.55-18.91,15.82-34.28,15.82Zm-1.95-94.73c-7.16,0-12.47,2.46-15.92,7.37-3.45,4.92-5.4,12.55-5.86,22.9h41.6v-2.34c-.46-10.03-2.26-17.19-5.42-21.48-3.16-4.3-7.96-6.45-14.4-6.45Z"/>
    <path class="cls-1" d="M568.61,85.55c-2.41-.45-5.01-.68-7.81-.68-8.85,0-15.04,4.85-18.55,14.55v75.59h-17.29V69.34h16.8l.29,10.74c4.62-8.46,11.17-12.7,19.63-12.7,2.73,0,5.01,.46,6.84,1.37l.1,16.8Z"/>
    <path class="cls-1" d="M651.72,154.69c-4.1,4.62-10.81,6.93-20.12,6.93s-16.39-3.84-21.24-11.52c-4.85-7.68-7.27-18.72-7.27-33.11v-26.07c0-14.65,2.6-25.77,7.81-33.35,5.21-7.59,12.66-11.38,22.36-11.38,8.4,0,14.65,2.48,18.75,7.42,4.1,4.95,6.54,13.22,7.33,24.81h18.06c-.65-15.3-4.73-27.05-12.25-35.26-7.52-8.2-18.15-12.3-31.89-12.3-14.91,0-26.68,5.37-35.3,16.11-8.63,10.74-12.94,25.36-12.94,43.85v25.78c0,18.56,4.2,33.25,12.6,44.09,5.49,7.09,12.23,11.86,20.23,14.31,4.23,1.3,8.81,1.95,13.75,1.95,5.68,0,10.84-.65,15.49-1.95,6.98-1.94,12.8-5.34,17.47-10.21,7.78-8.1,12.06-19.77,12.84-35h-18.06c-.98,11.97-3.52,20.28-7.62,24.9Z"/>
    <path class="cls-1" d="M765.83,80.47c-7.45-8.72-17.3-13.09-29.54-13.09s-22.09,4.48-29.54,13.43c-7.46,8.95-11.18,21.11-11.18,36.48v11.52c.26,14.78,4.08,26.5,11.47,35.15,4.53,5.31,9.97,8.99,16.32,11.04,4.01,1.3,8.38,1.95,13.12,1.95s9.08-.65,13.08-1.95c6.49-2.1,12.02-5.91,16.61-11.43,7.42-8.91,11.13-21.02,11.13-36.32v-11.14c-.19-15.04-4.02-26.92-11.47-35.64Zm-5.81,48.73c-.46,22.01-8.3,33.01-23.54,33.01-7.22,0-12.97-3.11-17.23-9.33-4.27-6.22-6.4-14.76-6.4-25.63v-10.06c0-10.74,2.13-19.26,6.4-25.54,4.26-6.28,9.94-9.42,17.04-9.42s12.99,3.14,17.28,9.42c4.3,6.28,6.45,14.83,6.45,25.64v11.91Z"/>
    <path class="cls-1" d="M854.94,25v54.69c-5.66-8.21-13.54-12.31-23.63-12.31-11.39,0-20.14,4.27-26.22,12.8-6.09,8.53-9.13,20.93-9.13,37.2v10.84c.13,15.5,3.3,27.49,9.52,35.99,3.79,5.17,8.44,8.77,13.98,10.79,3.55,1.3,7.47,1.95,11.75,1.95,4.03,0,7.72-.65,11.04-1.95,5.35-2.08,9.78-5.86,13.28-11.33l.88,11.33h15.82V25h-17.29Zm0,123.65c-4.23,8.65-10.64,12.97-19.24,12.97-7.94,0-13.67-2.78-17.18-8.34-3.52-5.56-5.28-14.25-5.28-26.09v-10.53c.07-11.51,1.86-20.05,5.37-25.61,3.52-5.55,9.25-8.34,17.19-8.34,8.33,0,14.71,4.23,19.14,12.68v53.26Z"/>
    <path class="cls-1" d="M971.74,127.34v-11.32c-.13-16.67-3.26-28.94-9.38-36.82s-15.36-11.82-27.73-11.82-21.89,4.48-28.76,13.43-10.3,21.31-10.3,37.06v12.79c.13,15.17,3.71,26.68,10.74,34.53,4.17,4.65,9.41,7.92,15.73,9.81,4.34,1.3,9.18,1.95,14.54,1.95s10.3-.65,14.72-1.95c8.18-2.4,14.7-7.02,19.56-13.87l-8.98-10.93c-3.39,4.16-7.02,7.21-10.89,9.13-3.88,1.92-8.35,2.88-13.43,2.88-8.01,0-14.15-2.57-18.41-7.72-4.26-5.14-6.4-13.38-6.4-24.7v-2.45h58.99Zm-53.03-37.74c3.45-4.92,8.76-7.37,15.92-7.37,6.44,0,11.25,2.15,14.4,6.44,3.16,4.3,4.97,11.46,5.42,21.49v2.34h-41.6c.46-10.35,2.41-17.98,5.86-22.9Z"/>
    <path class="cls-1" d="M1013.19,157.71c-1.92-2.08-4.73-3.12-8.44-3.12s-6.5,1.04-8.35,3.12c-1.86,2.09-2.79,4.69-2.79,7.82s.93,5.5,2.79,7.52c.75,.82,1.66,1.47,2.73,1.95,1.55,.72,3.42,1.07,5.62,1.07s4.09-.36,5.66-1.07c1.08-.48,2-1.13,2.78-1.95,1.92-2.02,2.88-4.53,2.88-7.52s-.96-5.73-2.88-7.82Z"/>
    <path class="cls-1" d="M1046.45,69.34v105.66h17.28V69.34h-17.28Zm16.16-35.4c-1.66-2.06-4.12-3.08-7.38-3.08s-5.69,1.01-7.32,3.03c-1.63,2.02-2.44,4.49-2.44,7.42s.81,5.37,2.44,7.32c1.63,1.96,4.07,2.93,7.32,2.93s5.8-.97,7.43-2.93c1.62-1.95,2.44-4.39,2.44-7.32s-.83-5.32-2.49-7.37Z"/>
    <path class="cls-1" d="M1157.53,80.47c-7.46-8.72-17.3-13.09-29.54-13.09s-22.09,4.48-29.54,13.43c-7.46,8.95-11.18,21.11-11.18,36.48v11.52c.26,14.78,4.08,26.5,11.47,35.15,4.53,5.31,9.97,8.99,16.32,11.04,4.01,1.3,8.38,1.95,13.12,1.95s9.08-.65,13.08-1.95c6.49-2.1,12.02-5.91,16.61-11.43,7.42-8.91,11.13-21.02,11.13-36.32v-11.14c-.19-15.04-4.02-26.92-11.47-35.64Zm-5.81,48.73c-.46,22.01-8.3,33.01-23.54,33.01-7.22,0-12.97-3.11-17.23-9.33-4.27-6.22-6.4-14.76-6.4-25.63v-10.06c0-10.74,2.13-19.26,6.4-25.54,4.26-6.28,9.94-9.42,17.04-9.42s12.99,3.14,17.28,9.42c4.3,6.28,6.45,14.83,6.45,25.64v11.91Z"/>
  </g>
  <path class="cls-2" d="M603.09,90.92v26.07c0,14.39,2.42,25.43,7.27,33.11,4.85,7.68,11.93,11.52,21.24,11.52s16.02-2.31,20.12-6.93c4.1-4.62,6.64-12.93,7.62-24.9h18.06c-.78,15.23-5.06,26.9-12.84,35-4.67,4.87-10.49,8.27-17.47,10.21h-29.24c-8-2.45-14.74-7.22-20.23-14.31-8.4-10.84-12.6-25.53-12.6-44.09v-25.78c0-18.49,4.31-33.11,12.94-43.85,8.62-10.74,20.39-16.11,35.3-16.11,13.74,0,24.37,4.1,31.89,12.3,7.52,8.21,11.6,19.96,12.25,35.26h-18.06c-.79-11.59-3.23-19.86-7.33-24.81-4.1-4.94-10.35-7.42-18.75-7.42-9.7,0-17.15,3.79-22.36,11.38-5.21,7.58-7.81,18.7-7.81,33.35Z"/>
  <path class="cls-2" d="M765.83,80.47c-7.45-8.72-17.3-13.09-29.54-13.09s-22.09,4.48-29.54,13.43c-7.46,8.95-11.18,21.11-11.18,36.48v11.52c.26,14.78,4.08,26.5,11.47,35.15,4.53,5.31,9.97,8.99,16.32,11.04h26.2c6.49-2.1,12.02-5.91,16.61-11.43,7.42-8.91,11.13-21.02,11.13-36.32v-11.14c-.19-15.04-4.02-26.92-11.47-35.64Zm-5.81,48.73c-.46,22.01-8.3,33.01-23.54,33.01-7.22,0-12.97-3.11-17.23-9.33-4.27-6.22-6.4-14.76-6.4-25.63v-10.06c0-10.74,2.13-19.26,6.4-25.54,4.26-6.28,9.94-9.42,17.04-9.42s12.99,3.14,17.28,9.42c4.3,6.28,6.45,14.83,6.45,25.64v11.91Z"/>
  <path class="cls-2" d="M854.94,25v54.69c-5.66-8.21-13.54-12.31-23.63-12.31-11.39,0-20.14,4.27-26.22,12.8-6.09,8.53-9.13,20.93-9.13,37.2v10.84c.13,15.5,3.3,27.49,9.52,35.99,3.79,5.17,8.44,8.77,13.98,10.79h52.77V25h-17.29Zm-19.24,136.62c-7.94,0-13.67-2.78-17.18-8.34-3.52-5.56-5.28-14.25-5.28-26.09v-10.53c.07-11.51,1.86-20.05,5.37-25.61,3.52-5.55,9.25-8.34,17.19-8.34,8.33,0,14.71,4.23,19.14,12.68v53.26c-4.23,8.65-10.64,12.97-19.24,12.97Z"/>
  <path class="cls-2" d="M971.74,127.34v-11.32c-.13-16.67-3.26-28.94-9.38-36.82s-15.36-11.82-27.73-11.82-21.89,4.48-28.76,13.43-10.3,21.31-10.3,37.06v12.79c.13,15.17,3.71,26.68,10.74,34.53,4.17,4.65,9.41,7.92,15.73,9.81h29.26c8.18-2.4,14.7-7.02,19.56-13.87l-8.98-10.93c-3.39,4.16-7.02,7.21-10.89,9.13-3.88,1.92-8.35,2.88-13.43,2.88-8.01,0-14.15-2.57-18.41-7.72-4.26-5.14-6.4-13.38-6.4-24.7v-2.45h58.99Zm-53.03-37.74c3.45-4.92,8.76-7.37,15.92-7.37,6.44,0,11.25,2.15,14.4,6.44,3.16,4.3,4.97,11.46,5.42,21.49v2.34h-41.6c.46-10.35,2.41-17.98,5.86-22.9Z"/>
  <path class="cls-2" d="M1013.19,157.71c1.92,2.09,2.88,4.69,2.88,7.82s-.96,5.5-2.88,7.52c-.78,.82-1.7,1.47-2.78,1.95h-11.28c-1.07-.48-1.98-1.13-2.73-1.95-1.86-2.02-2.79-4.53-2.79-7.52s.93-5.73,2.79-7.82c1.85-2.08,4.64-3.12,8.35-3.12s6.52,1.04,8.44,3.12Z"/>
  <path class="cls-2" d="M1062.61,33.94c1.66,2.05,2.49,4.5,2.49,7.37s-.82,5.37-2.44,7.32c-1.63,1.96-4.11,2.93-7.43,2.93s-5.69-.97-7.32-2.93c-1.63-1.95-2.44-4.39-2.44-7.32s.81-5.4,2.44-7.42c1.63-2.02,4.07-3.03,7.32-3.03s5.72,1.02,7.38,3.08Z"/>
  <rect class="cls-2" x="1046.45" y="69.34" width="17.28" height="105.66"/>
  <path class="cls-2" d="M1157.53,80.47c-7.46-8.72-17.3-13.09-29.54-13.09s-22.09,4.48-29.54,13.43c-7.46,8.95-11.18,21.11-11.18,36.48v11.52c.26,14.78,4.08,26.5,11.47,35.15,4.53,5.31,9.97,8.99,16.32,11.04h26.2c6.49-2.1,12.02-5.91,16.61-11.43,7.42-8.91,11.13-21.02,11.13-36.32v-11.14c-.19-15.04-4.02-26.92-11.47-35.64Zm-5.81,48.73c-.46,22.01-8.3,33.01-23.54,33.01-7.22,0-12.97-3.11-17.23-9.33-4.27-6.22-6.4-14.76-6.4-25.63v-10.06c0-10.74,2.13-19.26,6.4-25.54,4.26-6.28,9.94-9.42,17.04-9.42s12.99,3.14,17.28,9.42c4.3,6.28,6.45,14.83,6.45,25.64v11.91Z"/>
</svg>