<?xml version="1.0" encoding="UTF-8"?>
<svg id="Layer_1" data-name="Layer 1" xmlns="http://www.w3.org/2000/svg" viewBox="0 0 165 175">
  <defs>
    <style>
      .cls-1 {
        fill: #fff;
      }

      .cls-2 {
        fill: #00c95a;
      }
    </style>
  </defs>
  <path class="cls-1" d="M42,42c5.5-5.5,12.1-9.7,19.8-12.6,7.6-2.9,16.2-4.4,25.7-4.4h77.5V0H87.5c-13,0-24.9,2.1-35.6,6.4-10.7,4.3-20,10.2-27.6,17.9S10.6,41.1,6.4,51.9,0,74.5,0,87.5s2.1,24.9,6.4,35.6c4.3,10.7,10.2,20,17.9,27.6,7.7,7.7,16.9,13.6,27.6,17.9s22.6,6.4,35.6,6.4h25.2v-25h-25.2c-9.5,0-18.1-1.5-25.8-4.4s-14.2-7.1-19.8-12.6-9.7-12.1-12.6-19.8-4.3-16.2-4.3-25.7,1.5-18.1,4.4-25.8c2.9-7.6,7.1-14.2,12.6-19.7Zm123,33H58l43.9,57.8,6.2,8.2,6.2,8.2,.1,.2,19.6,25.6h31l-25.9-34-10.2-13.4-21.1-27.6h57.2v-25Z"/>
  <polygon class="cls-2" points="165 100 107.8 100 128.8 127.6 139.1 141 108.2 141 101.9 132.8 58 75 165 75 165 100"/>
  <polygon class="cls-2" points="165 175 134 175 114.6 149.4 114.6 127.6 128.8 127.6 139.1 141 165 175"/>
  <polygon class="cls-2" points="118.9 132.8 118.9 149.2 114.4 149.2 108.2 141 101.9 132.8 118.9 132.8"/>
</svg>